<svg width="96" height="96" xmlns="http://www.w3.org/2000/svg" xmlns:xlink="http://www.w3.org/1999/xlink" xml:space="preserve" overflow="hidden"><g transform="translate(-921 -431)"><path d="M992.21 468.31C993.506 467.809 994.88 467.538 996.27 467.51 993.186 460.808 987.754 455.468 981 452.5 980.951 453.873 980.664 455.226 980.15 456.5 985.365 458.995 989.606 463.148 992.21 468.31Z" fill="#FFFFFF"/><path d="M941.73 467.51C943.12 467.538 944.494 467.809 945.79 468.31 948.402 463.144 952.654 458.99 957.88 456.5 957.366 455.226 957.079 453.873 957.03 452.5 950.265 455.462 944.821 460.803 941.73 467.51Z" fill="#FFFFFF"/><path d="M992.62 490.84C990.11 496.283 985.807 500.7 980.43 503.35 980.809 504.53 981.001 505.761 981 507 981 507.17 981 507.33 981 507.5 988.107 504.387 993.744 498.657 996.74 491.5L996.5 491.5C995.179 491.497 993.868 491.274 992.62 490.84Z" fill="#FFFFFF"/><path d="M945.38 490.84C944.132 491.274 942.821 491.497 941.5 491.5L941.29 491.5C944.279 498.652 949.904 504.38 957 507.5 957 507.33 957 507.17 957 507 956.999 505.761 957.191 504.53 957.57 503.35 952.193 500.7 947.89 496.283 945.38 490.84Z" fill="#FFFFFF"/><path d="M949.5 479.5C949.5 483.918 945.918 487.5 941.5 487.5 937.082 487.5 933.5 483.918 933.5 479.5 933.5 475.082 937.082 471.5 941.5 471.5 945.918 471.5 949.5 475.082 949.5 479.5Z" fill="#FFFFFF"/><path d="M1004.5 479.5C1004.5 483.918 1000.92 487.5 996.5 487.5 992.082 487.5 988.5 483.918 988.5 479.5 988.5 475.082 992.082 471.5 996.5 471.5 1000.92 471.5 1004.5 475.082 1004.5 479.5Z" fill="#FFFFFF"/><path d="M977 507C977 511.418 973.418 515 969 515 964.582 515 961 511.418 961 507 961 502.582 964.582 499 969 499 973.418 499 977 502.582 977 507Z" fill="#FFFFFF"/><path d="M977 452C977 456.418 973.418 460 969 460 964.582 460 961 456.418 961 452 961 447.582 964.582 444 969 444 973.418 444 977 447.582 977 452Z" fill="#FFFFFF"/></g></svg>