<svg width="82" height="81" xmlns="http://www.w3.org/2000/svg" xmlns:xlink="http://www.w3.org/1999/xlink" xml:space="preserve" overflow="hidden"><g transform="translate(-791 -572)"><path d="M59.3553 44.7803 59.3553 49.8428 65.0574 49.8428 49.9719 64.9274 53.5511 68.5074 68.6365 53.422 68.6365 59.1241 73.699 59.1241 73.699 44.7803 59.3553 44.7803Z" fill="#FFFFFF" transform="matrix(1.01235 0 0 1 791 572)"/><path d="M59.9113 21.9383 73.4113 21.9383 73.4113 13.5008 51.4738 13.5008 51.4738 28.6883 36.2863 28.6883 36.2863 43.8758 21.0988 43.8758 21.0988 59.0633 7.59881 59.0633 7.59881 67.5008 29.5363 67.5008 29.5363 52.3133 44.7238 52.3133 44.7238 37.1258 59.9113 37.1258 59.9113 21.9383Z" fill="#FFFFFF" transform="matrix(1.01235 0 0 1 791 572)"/></g></svg>