<svg width="96" height="96" xmlns="http://www.w3.org/2000/svg" xmlns:xlink="http://www.w3.org/1999/xlink" xml:space="preserve" overflow="hidden"><g transform="translate(-1044 -557)"><path d="M1136 590.5C1136 588.3 1134.2 586.5 1132 586.5 1131.2 586.5 1130.5 586.7 1129.9 587.1L1112.8 596.9C1113 598 1113 599.1 1112.8 600.3 1112 604 1108.5 606.6 1104.7 606.6L1087 606.6 1087 602.6 1105 602.6C1107.2 602.6 1109 600.8 1109 598.6 1109 596.4 1107.2 594.6 1105 594.6 1105 594.6 1081.2 594.6 1081 594.6 1079.3 594.6 1077.7 595.1 1076.3 595.9L1048 609.5 1062 623.5C1068.5 617 1076.9 614.5 1086 614.5L1104.7 614.5C1105.6 614.5 1106.4 614.2 1107.1 613.7L1134.6 593.6C1135.4 592.8 1136 591.7 1136 590.5Z" fill="#FFFFFF"/></g></svg>