<svg width="66" height="67" xmlns="http://www.w3.org/2000/svg" xmlns:xlink="http://www.w3.org/1999/xlink" xml:space="preserve" overflow="hidden"><g transform="translate(-748 -354)"><path d="M64.0062 27.2938 56.2375 14.3687 55.55 13.2 54.3812 13.9562 49.1562 17.1875C48.5375 17.5312 48.0563 18.15 47.85 18.8375 47.7125 19.3188 47.7125 19.8687 47.9187 20.35 46.475 20.8312 45.0312 21.1063 43.5187 21.1063 41.4562 21.0375 39.3937 20.6938 37.4 20.075 36.4375 19.8 35.4062 19.5938 34.375 19.3875L34.2375 19.3875 34.2375 19.3875C34.1688 19.3875 34.1 19.3875 34.1 19.3875L33.9625 19.3875 33.825 19.3875C33.6875 19.3875 33.6188 19.3875 33.4813 19.3875L33.4813 19.3875C32.3125 19.3875 31.1437 19.8687 30.3875 20.7625L29.8375 21.3813C28.9437 21.0375 27.9813 20.8312 27.0187 20.8312 26.8125 20.8312 26.675 20.8312 26.4688 20.8312 26.0563 20.8312 25.7125 20.9 25.3 20.9 24.4062 20.9688 23.5125 21.0375 22.6188 21.0375 21.1063 21.1063 19.5938 20.7625 18.2188 20.1437 18.2875 19.7313 18.2875 19.3188 18.2188 18.8375 18.0125 18.15 17.5312 17.5312 16.9125 17.1875L11.7563 13.9562 10.5875 13.2 9.9 14.3687 1.99375 27.2938 1.30625 28.4625 2.475 29.15 7.76875 32.3812C8.73125 33 9.9 32.9313 10.7937 32.2438L15.2625 37.4688 15.3312 37.6063 15.4688 37.675 15.4688 37.675 14.5063 38.775C13.2687 40.2188 13.4062 42.35 14.7812 43.5875L14.7812 43.5875 14.7812 43.5875C15.4 44.1375 16.1562 44.4125 16.9813 44.4125 17.1187 44.4125 17.2563 44.4125 17.3937 44.4125 17.875 44.3438 18.2875 44.2063 18.7 43.9313 18.7687 44.7562 19.1812 45.5813 19.8 46.1312L19.8 46.1312 19.8 46.1312C20.4188 46.6813 21.175 46.9563 22 46.9563 22.0687 46.9563 22.2062 46.9563 22.275 46.9563 22.6188 46.9563 22.9625 46.8875 23.3063 46.75 23.375 47.5062 23.7188 48.2625 24.3375 48.7438L24.3375 48.7438 24.3375 48.7438C24.8875 49.225 25.575 49.5 26.2625 49.5 26.4 49.5 26.4688 49.5 26.6063 49.5 27.0875 49.5 27.5 49.2937 27.9125 49.0875 28.05 49.5687 28.325 50.05 28.7375 50.3938 29.2875 50.875 29.975 51.15 30.7313 51.0813L30.8688 51.0813 31.0062 51.0813C31.4188 51.0125 31.8312 50.8063 32.175 50.6L32.2438 50.6687 33.2062 51.425 33.275 51.4938 33.3438 51.5625C33.9625 51.975 34.7188 52.1813 35.4062 52.1813 35.5438 52.1813 35.6813 52.1813 35.8187 52.1813 37.5375 52.0437 38.9125 50.8063 39.3937 49.1562 40.9062 48.8812 42.1437 47.7125 42.5563 46.2 44.1375 45.8562 45.375 44.6875 45.7188 43.175 45.7875 43.175 45.925 43.175 45.9938 43.175 48.1937 42.9688 49.8438 41.0438 49.7063 38.8438 49.7063 38.7062 49.7063 38.5 49.7063 38.3625L50.2562 37.675 55 32.175C55.8938 32.9313 57.1312 32.9313 58.1625 32.3125L63.4563 29.0812 64.625 28.3937 64.0062 27.2938ZM8.45625 31.2125 3.1625 27.9813 11 15.0562 16.225 18.2875C16.775 18.5625 17.05 19.25 16.8438 19.8L16.4312 20.4875 10.45 30.3875 10.0375 31.0062C9.83125 31.2125 9.4875 31.35 9.14375 31.35 8.9375 31.4188 8.6625 31.35 8.45625 31.2125ZM17.2563 43.0375C17.1875 43.0375 17.1187 43.0375 17.05 43.0375 15.95 43.0375 15.0562 42.075 15.0562 40.975 15.0562 40.4938 15.2625 40.0125 15.5375 39.6688L19.1812 35.5438C19.5938 35.1312 20.1437 34.8563 20.7625 34.8563 21.2437 34.8563 21.725 35.0625 22.0687 35.3375 22.8937 36.0938 23.0312 37.4 22.275 38.225L18.6313 42.35C18.2875 42.7625 17.8062 42.9688 17.2563 43.0375ZM22.3438 45.65C22.275 45.65 22.2062 45.65 22.1375 45.65 21.0375 45.65 20.1437 44.6875 20.1437 43.5875 20.1437 43.1063 20.35 42.625 20.625 42.2812L23.7875 38.6375C24.2 38.225 24.75 37.95 25.3688 37.95 25.85 37.95 26.3312 38.1562 26.675 38.4313 27.5 39.1875 27.6375 40.4938 26.8812 41.3187L23.7188 44.9625C23.375 45.375 22.8937 45.65 22.3438 45.65L22.3438 45.65ZM26.675 48.1937C26.6063 48.1937 26.5375 48.1937 26.4688 48.1937 26.0563 48.1937 25.7125 48.0563 25.3688 47.7812 24.6813 47.1625 24.6125 46.0625 25.2313 45.375L28.3937 41.7313C28.7375 41.3875 29.2188 41.1813 29.7 41.1813 30.1125 41.1813 30.525 41.3187 30.8 41.5938 31.4875 42.2125 31.5563 43.3125 30.9375 44L27.775 47.6438C27.5 47.9875 27.0875 48.1937 26.675 48.1937L26.675 48.1937ZM30.8688 49.8438C30.525 49.8438 30.1125 49.775 29.8375 49.5 29.2875 49.0188 29.2188 48.125 29.7 47.575L32.3812 44.4812C32.6562 44.2063 33 44 33.4125 44 33.7562 44 34.0312 44.1375 34.3063 44.3438 34.8563 44.825 34.925 45.7188 34.4437 46.2688L31.7625 49.3625C31.5563 49.6375 31.2125 49.775 30.8688 49.8438L30.8688 49.8438ZM45.9938 41.8C45.925 41.8 45.7875 41.8 45.7188 41.8 45.3063 41.8 44.8938 41.6625 44.55 41.525 44.55 41.6625 44.6188 41.8 44.6188 41.9375 44.7562 43.45 43.6562 44.7562 42.1437 44.8938 42.1437 44.8938 42.1437 44.8938 42.1437 44.8938 41.9375 44.8938 41.6625 44.8938 41.4562 44.825L41.4562 44.8938C41.5938 46.4062 40.4938 47.7125 38.9813 47.85 38.9813 47.85 38.9813 47.85 38.9813 47.85 38.775 47.85 38.5 47.85 38.2938 47.7812L38.2938 47.85C38.4313 49.3625 37.3312 50.6687 35.8187 50.8063 35.8187 50.8063 35.8187 50.8063 35.8187 50.8063 35.75 50.8063 35.6813 50.8063 35.6125 50.8063 35.1312 50.8063 34.65 50.6687 34.1688 50.3938L33.275 49.7063 35.475 47.1625C36.4375 45.9938 36.3 44.275 35.2 43.3125 34.7188 42.9 34.1 42.625 33.4125 42.625 33.2062 42.625 32.9313 42.625 32.725 42.6937 32.6562 41.8688 32.3125 41.1125 31.6937 40.5625 31.1437 40.0812 30.3875 39.8063 29.6312 39.8063L29.6312 39.8063C29.2875 39.8063 29.0125 39.875 28.6688 39.9437 28.6688 38.9813 28.2562 38.0875 27.5 37.4 26.8812 36.85 26.125 36.5062 25.3 36.575L25.3 36.575C24.8875 36.575 24.475 36.6437 24.0625 36.7812 23.9938 35.8187 23.5812 34.925 22.8937 34.3063 22.275 33.7562 21.5187 33.4125 20.6938 33.4813L20.6938 33.4813C19.7313 33.4813 18.7687 33.8937 18.0812 34.65L16.2938 36.7125 16.225 36.6437 11.55 31.2125 17.5312 21.3125C19.0438 22.0687 20.7625 22.4125 22.4813 22.3438 23.8563 22.3438 25.2313 22.2062 26.4688 22.0687 26.6063 22.0687 26.7438 22.0687 26.8812 22.0687 27.5 22.0687 28.1188 22.1375 28.6688 22.3438L24.8875 26.8125C24.1312 27.6375 23.7875 28.7375 23.8563 29.8375 23.925 30.9375 24.475 31.9 25.3 32.6562L25.3 32.6562 25.3 32.6562C26.0563 33.275 27.0187 33.6188 27.9813 33.6188 28.1188 33.6188 28.1875 33.6188 28.325 33.6188 29.425 33.55 30.4562 33 31.1437 32.175L35.8187 26.8125 35.8187 26.8125 36.575 27.5 47.6438 36.9875C48.125 37.4 48.4 38.0875 48.4 38.7062 48.4 38.775 48.4 38.9813 48.4 38.9813 48.5375 40.425 47.4375 41.6625 45.9938 41.8 45.9938 41.8 45.9938 41.8 45.9938 41.8ZM49.3625 36.7812C49.1562 36.4375 48.8812 36.1625 48.6062 35.8875L35.75 24.8187 30.1125 31.2812C29.6312 31.8312 29.0125 32.175 28.2562 32.2438 28.1875 32.2438 28.1188 32.2438 28.05 32.2438 27.3625 32.2438 26.7438 31.9688 26.1937 31.5563 25.025 30.5938 24.8875 28.9437 25.85 27.775 25.85 27.775 25.9188 27.7062 25.9188 27.7062L31.35 21.5187C31.9 20.9 32.6562 20.625 33.4125 20.625 33.4813 20.625 33.55 20.625 33.6875 20.625 33.825 20.625 33.8937 20.6938 34.0312 20.6938 37.1937 21.3125 40.0812 22.4125 43.45 22.4125 45.1687 22.4125 46.8875 22.1375 48.4688 21.5187L52.4563 27.9813 54.3125 31.075 49.3625 36.7812ZM57.5437 31.2125C57.3375 31.35 57.0625 31.4188 56.8562 31.4188 56.5125 31.4188 56.1687 31.2812 55.8938 31.0062L55.4812 30.3187 53.625 27.2938 49.2937 20.1437C48.8812 19.525 49.0875 18.7687 49.6375 18.3563 49.7063 18.3563 49.7063 18.2875 49.775 18.2875L55.0687 15.0562 62.8375 27.9813 57.5437 31.2125Z" stroke="#FFFFFF" stroke-width="0.687486" fill="#FFFFFF" transform="matrix(1 0 0 1.01515 748 354)"/></g></svg>